<?xml version="1.0" encoding="UTF-8"?>
<svg xmlns="http://www.w3.org/2000/svg" version="1.1" viewBox="0 0 841.89 180.42">
  <defs>
    <style>
      .cls-1, .cls-2 {
        fill: #09314f;
      }

      .cls-1, .cls-3 {
        fill-rule: evenodd;
      }

      .cls-4 {
        stroke: #09314f;
        stroke-width: 1.06px;
      }

      .cls-4, .cls-5 {
        fill: none;
        stroke-miterlimit: 2.61;
      }

      .cls-5 {
        stroke: #f6891f;
        stroke-width: .46px;
      }

      .cls-3, .cls-6 {
        fill: #f6891f;
      }

      .cls-7 {
        fill: #083755;
      }

      .cls-8 {
        fill: #ce2027;
      }
    </style>
  </defs>
  <!-- Generator: Adobe Illustrator 28.7.1, SVG Export Plug-In . SVG Version: 1.2.0 Build 142)  -->
  <g>
    <g id="Layer_1">
      <path class="cls-3" d="M807.19,154.4v-1.98c-1.03,1.51-2.44,2.26-4.21,2.26-.78,0-1.52-.15-2.2-.45-.68-.3-1.18-.68-1.51-1.14-.33-.46-.56-1.01-.69-1.67-.09-.45-.14-1.15-.14-2.11v-8.25h2.26v7.37c0,1.18.05,1.97.14,2.38.14.6.44,1.06.9,1.4.46.34,1.02.51,1.7.51s1.31-.17,1.9-.52c.59-.35,1.01-.82,1.26-1.42.24-.59.37-1.46.37-2.6v-7.12h2.26v13.32h-2.03ZM785.67,147.75c0,1.7.37,2.98,1.12,3.82.75.85,1.68,1.27,2.82,1.27s2.05-.42,2.8-1.27c.74-.85,1.12-2.15,1.12-3.89,0-1.64-.38-2.89-1.12-3.73-.75-.85-1.68-1.27-2.79-1.27s-2.07.42-2.82,1.26c-.74.84-1.12,2.11-1.12,3.81ZM783.36,147.74c0-2.46.68-4.28,2.06-5.47,1.14-.98,2.54-1.48,4.19-1.48,1.83,0,3.32.6,4.49,1.8,1.16,1.19,1.74,2.85,1.74,4.96,0,1.71-.26,3.06-.77,4.03-.51.98-1.26,1.74-2.25,2.29-.98.54-2.05.81-3.21.81-1.86,0-3.37-.59-4.52-1.79-1.15-1.19-1.72-2.91-1.72-5.16ZM771.27,159.52l-.26-2.09c.49.13.92.2,1.29.2.5,0,.91-.08,1.21-.25.3-.17.55-.4.74-.7.14-.23.37-.79.69-1.69.04-.12.11-.31.2-.55l-5.06-13.37h2.41l2.78,7.69c.36.97.68,2,.97,3.08.26-1.01.57-2.02.93-3l2.84-7.77h2.26l-5.04,13.55c-.54,1.46-.97,2.46-1.27,3.01-.4.74-.86,1.28-1.38,1.63-.52.34-1.14.52-1.86.52-.44,0-.92-.09-1.46-.27ZM751.43,147.75c0,1.7.37,2.98,1.12,3.82.75.85,1.69,1.27,2.82,1.27s2.05-.42,2.8-1.27c.74-.85,1.12-2.15,1.12-3.89,0-1.64-.38-2.89-1.13-3.73-.75-.85-1.68-1.27-2.79-1.27s-2.07.42-2.82,1.26c-.74.84-1.12,2.11-1.12,3.81ZM749.12,147.74c0-2.46.69-4.28,2.06-5.47,1.14-.98,2.54-1.48,4.19-1.48,1.83,0,3.32.6,4.49,1.8,1.16,1.19,1.74,2.85,1.74,4.96,0,1.71-.26,3.06-.77,4.03-.51.98-1.26,1.74-2.25,2.29-.98.54-2.05.81-3.21.81-1.86,0-3.37-.59-4.52-1.79-1.15-1.19-1.72-2.91-1.72-5.16ZM747.74,152.39l.31,1.99c-.63.13-1.2.2-1.7.2-.82,0-1.45-.13-1.9-.39-.45-.26-.77-.6-.95-1.02-.18-.42-.28-1.31-.28-2.67v-7.68h-1.67v-1.75h1.67v-3.29l2.26-1.36v4.65h2.26v1.75h-2.26v7.8c0,.65.04,1.06.12,1.24.08.18.21.33.39.44.18.1.44.16.77.16.25,0,.58-.03.98-.09ZM722.89,147.76c0,1.7.36,2.97,1.08,3.82.72.84,1.57,1.26,2.55,1.26s1.83-.4,2.52-1.21c.69-.8,1.04-2.03,1.04-3.68,0-1.81-.35-3.15-1.06-4-.7-.85-1.57-1.28-2.6-1.28s-1.84.41-2.52,1.22c-.67.82-1.01,2.1-1.01,3.86ZM730.02,154.4v-1.69c-.84,1.31-2.08,1.97-3.72,1.97-1.06,0-2.04-.29-2.92-.88-.89-.58-1.58-1.4-2.07-2.44-.49-1.05-.73-2.25-.73-3.61s.22-2.53.66-3.61c.45-1.08,1.11-1.91,1.99-2.48.88-.58,1.87-.86,2.96-.86.81,0,1.52.17,2.14.51.62.34,1.13.78,1.53,1.33v-6.61h2.26v18.38h-2.1ZM715.67,154.4v-18.38h2.26v18.38h-2.26ZM707.15,154.4v-13.32h2.03v2.04c.52-.95,1-1.57,1.44-1.87.44-.3.92-.45,1.45-.45.76,0,1.54.24,2.32.71l-.81,2.08c-.55-.31-1.1-.46-1.64-.46-.49,0-.93.15-1.32.45-.39.29-.67.71-.84,1.23-.25.8-.38,1.67-.38,2.63v6.96h-2.26ZM694.36,147.75c0,1.7.37,2.98,1.12,3.82.75.85,1.69,1.27,2.82,1.27s2.05-.42,2.8-1.27c.74-.85,1.12-2.15,1.12-3.89,0-1.64-.38-2.89-1.12-3.73-.75-.85-1.68-1.27-2.79-1.27s-2.07.42-2.82,1.26c-.75.84-1.12,2.11-1.12,3.81ZM692.05,147.74c0-2.46.68-4.28,2.06-5.47,1.14-.98,2.54-1.48,4.19-1.48,1.83,0,3.32.6,4.49,1.8,1.16,1.19,1.74,2.85,1.74,4.96,0,1.71-.26,3.06-.77,4.03-.51.98-1.26,1.74-2.25,2.29-.98.54-2.05.81-3.21.81-1.86,0-3.37-.59-4.52-1.79-1.15-1.19-1.72-2.91-1.72-5.16ZM676.75,154.4l-4.02-13.32h2.36l2.13,7.69.75,2.86c.03-.14.26-1.05.69-2.75l2.11-7.8h2.32l2.01,7.74.66,2.54.77-2.57,2.3-7.7h2.2l-4.18,13.32h-2.34l-2.11-7.97-.53-2.28-2.7,10.25h-2.39ZM654.64,146.47h7.42c-.1-1.12-.38-1.96-.85-2.52-.72-.87-1.65-1.31-2.79-1.31-1.03,0-1.9.35-2.61,1.04-.7.69-1.09,1.62-1.17,2.79ZM662.03,150.09l2.34.31c-.36,1.35-1.05,2.41-2.04,3.16-.99.75-2.26,1.13-3.8,1.13-1.94,0-3.48-.6-4.62-1.8-1.14-1.19-1.71-2.87-1.71-5.04s.57-3.97,1.72-5.2c1.15-1.24,2.64-1.85,4.48-1.85s3.23.6,4.35,1.82c1.12,1.21,1.69,2.91,1.69,5.11,0,.13,0,.33-.01.6h-9.92c.09,1.46.5,2.58,1.24,3.35.74.77,1.67,1.16,2.78,1.16.83,0,1.53-.22,2.11-.66.58-.43,1.05-1.13,1.39-2.09ZM638.67,154.4v-18.38h2.26v6.62c1.05-1.23,2.37-1.84,3.97-1.84.98,0,1.83.19,2.56.58.72.39,1.24.92,1.55,1.61.31.68.47,1.68.47,2.98v8.43h-2.26v-8.42c0-1.13-.24-1.95-.73-2.46-.49-.51-1.17-.77-2.06-.77-.66,0-1.29.17-1.87.52-.59.35-1,.82-1.25,1.41-.25.59-.37,1.41-.37,2.45v7.27h-2.26ZM636.44,152.39l.31,1.99c-.63.13-1.2.2-1.7.2-.82,0-1.45-.13-1.91-.39-.45-.26-.76-.6-.95-1.02-.18-.42-.27-1.31-.27-2.67v-7.68h-1.67v-1.75h1.67v-3.29l2.26-1.36v4.65h2.26v1.75h-2.26v7.8c0,.65.04,1.06.12,1.24.08.18.21.33.39.44.18.1.43.16.77.16.25,0,.58-.03.98-.09ZM611.56,147.52c0,1.74.35,3.01,1.04,3.81.7.8,1.57,1.2,2.61,1.2s1.91-.4,2.61-1.19c.7-.8,1.05-2.05,1.05-3.75s-.36-2.86-1.09-3.68c-.72-.83-1.6-1.24-2.61-1.24s-1.86.41-2.56,1.22c-.7.81-1.05,2.02-1.05,3.62ZM609.71,155.51l2.18.31c.09.67.35,1.17.77,1.48.56.41,1.33.62,2.3.62,1.04,0,1.85-.21,2.42-.62.57-.42.95-1,1.15-1.75.12-.46.17-1.42.16-2.89-.99,1.16-2.22,1.75-3.69,1.75-1.83,0-3.25-.66-4.25-1.98-1.01-1.32-1.51-2.9-1.51-4.74,0-1.27.23-2.44.69-3.52.46-1.07,1.12-1.9,2-2.49.87-.59,1.9-.88,3.08-.88,1.57,0,2.87.64,3.88,1.92v-1.64h2.08v11.5c0,2.08-.21,3.54-.63,4.41-.42.86-1.09,1.55-2,2.05-.91.5-2.04.75-3.37.75-1.59,0-2.87-.35-3.84-1.07-.98-.71-1.45-1.78-1.42-3.22ZM595.85,154.4v-13.32h2.03v1.89c.97-1.45,2.39-2.17,4.23-2.17.8,0,1.54.14,2.21.43.67.29,1.18.67,1.51,1.13.33.47.57,1.02.7,1.67.08.42.12,1.15.12,2.2v8.18h-2.26v-8.09c0-.92-.08-1.61-.26-2.06-.18-.45-.49-.82-.93-1.09-.45-.27-.97-.41-1.57-.41-.96,0-1.79.31-2.48.92-.7.61-1.04,1.77-1.04,3.47v7.27h-2.26ZM590.14,154.4v-13.32h2.26v13.32h-2.26ZM590.14,138.59v-2.57h2.26v2.57h-2.26ZM575.87,154.4v-18.38h2.26v6.62c1.05-1.23,2.37-1.84,3.97-1.84.98,0,1.83.19,2.56.58.72.39,1.24.92,1.55,1.61.31.68.47,1.68.47,2.98v8.43h-2.26v-8.42c0-1.13-.24-1.95-.73-2.46-.49-.51-1.17-.77-2.06-.77-.66,0-1.29.17-1.87.52-.59.35-1,.82-1.25,1.41-.25.59-.37,1.41-.37,2.45v7.27h-2.26ZM571.73,149.53l2.21.31c-.24,1.52-.86,2.71-1.86,3.57-1,.86-2.23,1.29-3.68,1.29-1.82,0-3.28-.59-4.39-1.78-1.11-1.19-1.66-2.9-1.66-5.11,0-1.44.24-2.69.71-3.77.48-1.07,1.2-1.88,2.17-2.42.97-.54,2.03-.81,3.17-.81,1.44,0,2.63.36,3.54,1.1.92.73,1.51,1.77,1.77,3.11l-2.18.33c-.21-.9-.58-1.57-1.11-2.02-.53-.45-1.17-.68-1.92-.68-1.14,0-2.06.41-2.78,1.22-.71.81-1.06,2.1-1.06,3.86s.34,3.09,1.03,3.9c.69.81,1.58,1.21,2.68,1.21.89,0,1.63-.27,2.22-.81.6-.54.97-1.37,1.13-2.5ZM557.28,147.73c-.82.33-2.05.62-3.7.85-.93.13-1.59.28-1.98.45-.38.17-.68.41-.89.73-.21.32-.32.67-.32,1.07,0,.59.23,1.1.68,1.49.46.4,1.12.6,2,.6s1.64-.19,2.32-.57c.67-.38,1.18-.9,1.49-1.55.24-.51.36-1.26.36-2.25v-.82ZM557.46,152.73c-.84.71-1.65,1.21-2.42,1.51-.77.29-1.6.44-2.49.44-1.46,0-2.59-.35-3.37-1.07-.79-.71-1.18-1.62-1.18-2.73,0-.65.15-1.24.45-1.78.3-.54.69-.97,1.17-1.29.48-.33,1.02-.57,1.63-.74.44-.12,1.12-.23,2.01-.34,1.82-.21,3.17-.48,4.03-.77,0-.31.01-.5.01-.59,0-.91-.21-1.56-.64-1.94-.58-.51-1.44-.76-2.58-.76-1.07,0-1.85.19-2.36.56-.51.37-.88,1.03-1.12,1.98l-2.21-.31c.2-.95.53-1.71.99-2.29.46-.58,1.13-1.03,2-1.34.87-.31,1.88-.47,3.03-.47s2.07.13,2.78.4c.71.27,1.24.6,1.57,1.01.33.41.57.92.71,1.54.07.38.11,1.08.11,2.08v2.99c0,2.09.05,3.41.14,3.97.09.56.28,1.1.55,1.61h-2.36c-.23-.48-.37-1.03-.44-1.67ZM536.17,146.47h7.42c-.1-1.12-.38-1.96-.85-2.52-.72-.87-1.65-1.31-2.79-1.31-1.04,0-1.9.35-2.61,1.04-.7.69-1.09,1.62-1.17,2.79ZM543.56,150.09l2.34.31c-.36,1.35-1.04,2.41-2.04,3.16-.99.75-2.26,1.13-3.8,1.13-1.94,0-3.48-.6-4.62-1.8-1.14-1.19-1.71-2.87-1.71-5.04s.57-3.97,1.72-5.2c1.15-1.24,2.64-1.85,4.48-1.85s3.23.6,4.35,1.82c1.12,1.21,1.69,2.91,1.69,5.11,0,.13,0,.33-.01.6h-9.92c.09,1.46.5,2.58,1.24,3.35.74.77,1.67,1.16,2.78,1.16.83,0,1.53-.22,2.11-.66.59-.43,1.05-1.13,1.39-2.09ZM518.71,144.13h5.22c1.11,0,1.98-.12,2.6-.35.62-.23,1.1-.6,1.42-1.1.32-.51.49-1.05.49-1.65,0-.87-.31-1.59-.94-2.15-.63-.56-1.62-.84-2.98-.84h-5.81v6.08ZM516.27,154.4v-18.38h8.15c1.64,0,2.88.17,3.73.5.85.33,1.53.91,2.04,1.75.51.83.76,1.76.76,2.77,0,1.3-.42,2.4-1.27,3.3-.84.89-2.14,1.46-3.91,1.7.65.31,1.13.62,1.47.92.71.65,1.38,1.47,2.01,2.45l3.18,5h-3.04l-2.43-3.82c-.71-1.11-1.29-1.95-1.75-2.54-.46-.58-.87-.99-1.24-1.23-.36-.23-.73-.39-1.11-.49-.27-.05-.72-.09-1.35-.09h-2.82v8.16h-2.44Z"/>
      <path class="cls-5" d="M807.19,154.4v-1.98c-1.03,1.51-2.44,2.26-4.21,2.26-.78,0-1.52-.15-2.2-.45-.68-.3-1.18-.68-1.51-1.14-.33-.46-.56-1.01-.69-1.67-.09-.45-.14-1.15-.14-2.11v-8.25h2.26v7.37c0,1.18.05,1.97.14,2.38.14.6.44,1.06.9,1.4.46.34,1.02.51,1.7.51s1.31-.17,1.9-.52c.59-.35,1.01-.82,1.26-1.42.24-.59.37-1.46.37-2.6v-7.12h2.26v13.32h-2.03ZM785.67,147.75c0,1.7.37,2.98,1.12,3.82.75.85,1.68,1.27,2.82,1.27s2.05-.42,2.8-1.27c.74-.85,1.12-2.15,1.12-3.89,0-1.64-.38-2.89-1.12-3.73-.75-.85-1.68-1.27-2.79-1.27s-2.07.42-2.82,1.26c-.74.84-1.12,2.11-1.12,3.81ZM783.36,147.74c0-2.46.68-4.28,2.06-5.47,1.14-.98,2.54-1.48,4.19-1.48,1.83,0,3.32.6,4.49,1.8,1.16,1.19,1.74,2.85,1.74,4.96,0,1.71-.26,3.06-.77,4.03-.51.98-1.26,1.74-2.25,2.29-.98.54-2.05.81-3.21.81-1.86,0-3.37-.59-4.52-1.79-1.15-1.19-1.72-2.91-1.72-5.16ZM771.27,159.52l-.26-2.09c.49.13.92.2,1.29.2.5,0,.91-.08,1.21-.25.3-.17.55-.4.74-.7.14-.23.37-.79.69-1.69.04-.12.11-.31.2-.55l-5.06-13.37h2.41l2.78,7.69c.36.97.68,2,.97,3.08.26-1.01.57-2.02.93-3l2.84-7.77h2.26l-5.04,13.55c-.54,1.46-.97,2.46-1.27,3.01-.4.74-.86,1.28-1.38,1.63-.52.34-1.14.52-1.86.52-.44,0-.92-.09-1.46-.27ZM751.43,147.75c0,1.7.37,2.98,1.12,3.82.75.85,1.69,1.27,2.82,1.27s2.05-.42,2.8-1.27c.74-.85,1.12-2.15,1.12-3.89,0-1.64-.38-2.89-1.13-3.73-.75-.85-1.68-1.27-2.79-1.27s-2.07.42-2.82,1.26c-.74.84-1.12,2.11-1.12,3.81ZM749.12,147.74c0-2.46.69-4.28,2.06-5.47,1.14-.98,2.54-1.48,4.19-1.48,1.83,0,3.32.6,4.49,1.8,1.16,1.19,1.74,2.85,1.74,4.96,0,1.71-.26,3.06-.77,4.03-.51.98-1.26,1.74-2.25,2.29-.98.54-2.05.81-3.21.81-1.86,0-3.37-.59-4.52-1.79-1.15-1.19-1.72-2.91-1.72-5.16ZM747.74,152.39l.31,1.99c-.63.13-1.2.2-1.7.2-.82,0-1.45-.13-1.9-.39-.45-.26-.77-.6-.95-1.02-.18-.42-.28-1.31-.28-2.67v-7.68h-1.67v-1.75h1.67v-3.29l2.26-1.36v4.65h2.26v1.75h-2.26v7.8c0,.65.04,1.06.12,1.24.08.18.21.33.39.44.18.1.44.16.77.16.25,0,.58-.03.98-.09ZM722.89,147.76c0,1.7.36,2.97,1.08,3.82.72.84,1.57,1.26,2.55,1.26s1.83-.4,2.52-1.21c.69-.8,1.04-2.03,1.04-3.68,0-1.81-.35-3.15-1.06-4-.7-.85-1.57-1.28-2.6-1.28s-1.84.41-2.52,1.22c-.67.82-1.01,2.1-1.01,3.86ZM730.02,154.4v-1.69c-.84,1.31-2.08,1.97-3.72,1.97-1.06,0-2.04-.29-2.92-.88-.89-.58-1.58-1.4-2.07-2.44-.49-1.05-.73-2.25-.73-3.61s.22-2.53.66-3.61c.45-1.08,1.11-1.91,1.99-2.48.88-.58,1.87-.86,2.96-.86.81,0,1.52.17,2.14.51.62.34,1.13.78,1.53,1.33v-6.61h2.26v18.38h-2.1ZM715.67,154.4v-18.38h2.26v18.38h-2.26ZM707.15,154.4v-13.32h2.03v2.04c.52-.95,1-1.57,1.44-1.87.44-.3.92-.45,1.45-.45.76,0,1.54.24,2.32.71l-.81,2.08c-.55-.31-1.1-.46-1.64-.46-.49,0-.93.15-1.32.45-.39.29-.67.71-.84,1.23-.25.8-.38,1.67-.38,2.63v6.96h-2.26ZM694.36,147.75c0,1.7.37,2.98,1.12,3.82.75.85,1.69,1.27,2.82,1.27s2.05-.42,2.8-1.27c.74-.85,1.12-2.15,1.12-3.89,0-1.64-.38-2.89-1.12-3.73-.75-.85-1.68-1.27-2.79-1.27s-2.07.42-2.82,1.26c-.75.84-1.12,2.11-1.12,3.81ZM692.05,147.74c0-2.46.68-4.28,2.06-5.47,1.14-.98,2.54-1.48,4.19-1.48,1.83,0,3.32.6,4.49,1.8,1.16,1.19,1.74,2.85,1.74,4.96,0,1.71-.26,3.06-.77,4.03-.51.98-1.26,1.74-2.25,2.29-.98.54-2.05.81-3.21.81-1.86,0-3.37-.59-4.52-1.79-1.15-1.19-1.72-2.91-1.72-5.16ZM676.75,154.4l-4.02-13.32h2.36l2.13,7.69.75,2.86c.03-.14.26-1.05.69-2.75l2.11-7.8h2.32l2.01,7.74.66,2.54.77-2.57,2.3-7.7h2.2l-4.18,13.32h-2.34l-2.11-7.97-.53-2.28-2.7,10.25h-2.39ZM654.64,146.47h7.42c-.1-1.12-.38-1.96-.85-2.52-.72-.87-1.65-1.31-2.79-1.31-1.03,0-1.9.35-2.61,1.04-.7.69-1.09,1.62-1.17,2.79ZM662.03,150.09l2.34.31c-.36,1.35-1.05,2.41-2.04,3.16-.99.75-2.26,1.13-3.8,1.13-1.94,0-3.48-.6-4.62-1.8-1.14-1.19-1.71-2.87-1.71-5.04s.57-3.97,1.72-5.2c1.15-1.24,2.64-1.85,4.48-1.85s3.23.6,4.35,1.82c1.12,1.21,1.69,2.91,1.69,5.11,0,.13,0,.33-.01.6h-9.92c.09,1.46.5,2.58,1.24,3.35.74.77,1.67,1.16,2.78,1.16.83,0,1.53-.22,2.11-.66.58-.43,1.05-1.13,1.39-2.09ZM638.67,154.4v-18.38h2.26v6.62c1.05-1.23,2.37-1.84,3.97-1.84.98,0,1.83.19,2.56.58.72.39,1.24.92,1.55,1.61.31.68.47,1.68.47,2.98v8.43h-2.26v-8.42c0-1.13-.24-1.95-.73-2.46-.49-.51-1.17-.77-2.06-.77-.66,0-1.29.17-1.87.52-.59.35-1,.82-1.25,1.41-.25.59-.37,1.41-.37,2.45v7.27h-2.26ZM636.44,152.39l.31,1.99c-.63.13-1.2.2-1.7.2-.82,0-1.45-.13-1.91-.39-.45-.26-.76-.6-.95-1.02-.18-.42-.27-1.31-.27-2.67v-7.68h-1.67v-1.75h1.67v-3.29l2.26-1.36v4.65h2.26v1.75h-2.26v7.8c0,.65.04,1.06.12,1.24.08.18.21.33.39.44.18.1.43.16.77.16.25,0,.58-.03.98-.09ZM611.56,147.52c0,1.74.35,3.01,1.04,3.81.7.8,1.57,1.2,2.61,1.2s1.91-.4,2.61-1.19c.7-.8,1.05-2.05,1.05-3.75s-.36-2.86-1.09-3.68c-.72-.83-1.6-1.24-2.61-1.24s-1.86.41-2.56,1.22c-.7.81-1.05,2.02-1.05,3.62ZM609.71,155.51l2.18.31c.09.67.35,1.17.77,1.48.56.41,1.33.62,2.3.62,1.04,0,1.85-.21,2.42-.62.57-.42.95-1,1.15-1.75.12-.46.17-1.42.16-2.89-.99,1.16-2.22,1.75-3.69,1.75-1.83,0-3.25-.66-4.25-1.98-1.01-1.32-1.51-2.9-1.51-4.74,0-1.27.23-2.44.69-3.52.46-1.07,1.12-1.9,2-2.49.87-.59,1.9-.88,3.08-.88,1.57,0,2.87.64,3.88,1.92v-1.64h2.08v11.5c0,2.08-.21,3.54-.63,4.41-.42.86-1.09,1.55-2,2.05-.91.5-2.04.75-3.37.75-1.59,0-2.87-.35-3.84-1.07-.98-.71-1.45-1.78-1.42-3.22ZM595.85,154.4v-13.32h2.03v1.89c.97-1.45,2.39-2.17,4.23-2.17.8,0,1.54.14,2.21.43.67.29,1.18.67,1.51,1.13.33.47.57,1.02.7,1.67.08.42.12,1.15.12,2.2v8.18h-2.26v-8.09c0-.92-.08-1.61-.26-2.06-.18-.45-.49-.82-.93-1.09-.45-.27-.97-.41-1.57-.41-.96,0-1.79.31-2.48.92-.7.61-1.04,1.77-1.04,3.47v7.27h-2.26ZM590.14,154.4v-13.32h2.26v13.32h-2.26ZM590.14,138.59v-2.57h2.26v2.57h-2.26ZM575.87,154.4v-18.38h2.26v6.62c1.05-1.23,2.37-1.84,3.97-1.84.98,0,1.83.19,2.56.58.72.39,1.24.92,1.55,1.61.31.68.47,1.68.47,2.98v8.43h-2.26v-8.42c0-1.13-.24-1.95-.73-2.46-.49-.51-1.17-.77-2.06-.77-.66,0-1.29.17-1.87.52-.59.35-1,.82-1.25,1.41-.25.59-.37,1.41-.37,2.45v7.27h-2.26ZM571.73,149.53l2.21.31c-.24,1.52-.86,2.71-1.86,3.57-1,.86-2.23,1.29-3.68,1.29-1.82,0-3.28-.59-4.39-1.78-1.11-1.19-1.66-2.9-1.66-5.11,0-1.44.24-2.69.71-3.77.48-1.07,1.2-1.88,2.17-2.42.97-.54,2.03-.81,3.17-.81,1.44,0,2.63.36,3.54,1.1.92.73,1.51,1.77,1.77,3.11l-2.18.33c-.21-.9-.58-1.57-1.11-2.02-.53-.45-1.17-.68-1.92-.68-1.14,0-2.06.41-2.78,1.22-.71.81-1.06,2.1-1.06,3.86s.34,3.09,1.03,3.9c.69.81,1.58,1.21,2.68,1.21.89,0,1.63-.27,2.22-.81.6-.54.97-1.37,1.13-2.5ZM557.28,147.73c-.82.33-2.05.62-3.7.85-.93.13-1.59.28-1.98.45-.38.17-.68.41-.89.73-.21.32-.32.67-.32,1.07,0,.59.23,1.1.68,1.49.46.4,1.12.6,2,.6s1.64-.19,2.32-.57c.67-.38,1.18-.9,1.49-1.55.24-.51.36-1.26.36-2.25v-.82ZM557.46,152.73c-.84.71-1.65,1.21-2.42,1.51-.77.29-1.6.44-2.49.44-1.46,0-2.59-.35-3.37-1.07-.79-.71-1.18-1.62-1.18-2.73,0-.65.15-1.24.45-1.78.3-.54.69-.97,1.17-1.29.48-.33,1.02-.57,1.63-.74.44-.12,1.12-.23,2.01-.34,1.82-.21,3.17-.48,4.03-.77,0-.31.01-.5.01-.59,0-.91-.21-1.56-.64-1.94-.58-.51-1.44-.76-2.58-.76-1.07,0-1.85.19-2.36.56-.51.37-.88,1.03-1.12,1.98l-2.21-.31c.2-.95.53-1.71.99-2.29.46-.58,1.13-1.03,2-1.34.87-.31,1.88-.47,3.03-.47s2.07.13,2.78.4c.71.27,1.24.6,1.57,1.01.33.41.57.92.71,1.54.07.38.11,1.08.11,2.08v2.99c0,2.09.05,3.41.14,3.97.09.56.28,1.1.55,1.61h-2.36c-.23-.48-.37-1.03-.44-1.67ZM536.17,146.47h7.42c-.1-1.12-.38-1.96-.85-2.52-.72-.87-1.65-1.31-2.79-1.31-1.04,0-1.9.35-2.61,1.04-.7.69-1.09,1.62-1.17,2.79ZM543.56,150.09l2.34.31c-.36,1.35-1.04,2.41-2.04,3.16-.99.75-2.26,1.13-3.8,1.13-1.94,0-3.48-.6-4.62-1.8-1.14-1.19-1.71-2.87-1.71-5.04s.57-3.97,1.72-5.2c1.15-1.24,2.64-1.85,4.48-1.85s3.23.6,4.35,1.82c1.12,1.21,1.69,2.91,1.69,5.11,0,.13,0,.33-.01.6h-9.92c.09,1.46.5,2.58,1.24,3.35.74.77,1.67,1.16,2.78,1.16.83,0,1.53-.22,2.11-.66.59-.43,1.05-1.13,1.39-2.09ZM518.71,144.13h5.22c1.11,0,1.98-.12,2.6-.35.62-.23,1.1-.6,1.42-1.1.32-.51.49-1.05.49-1.65,0-.87-.31-1.59-.94-2.15-.63-.56-1.62-.84-2.98-.84h-5.81v6.08ZM516.27,154.4v-18.38h8.15c1.64,0,2.88.17,3.73.5.85.33,1.53.91,2.04,1.75.51.83.76,1.76.76,2.77,0,1.3-.42,2.4-1.27,3.3-.84.89-2.14,1.46-3.91,1.7.65.31,1.13.62,1.47.92.71.65,1.38,1.47,2.01,2.45l3.18,5h-3.04l-2.43-3.82c-.71-1.11-1.29-1.95-1.75-2.54-.46-.58-.87-.99-1.24-1.23-.36-.23-.73-.39-1.11-.49-.27-.05-.72-.09-1.35-.09h-2.82v8.16h-2.44Z"/>
      <path class="cls-1" d="M815.71,87.99c0,1.63-.13,3.26-.43,4.91h-41.65c1.12,3.44,3.13,6.24,6.02,8.36,2.9,2.12,6.12,3.19,9.69,3.19,5.84,0,10.57-2.72,14.17-8.15l8.29,5.45c-5.56,8.31-13.05,12.47-22.46,12.47-7.24,0-13.44-2.53-18.61-7.62-5.15-5.15-7.72-11.34-7.72-18.58s2.57-13.41,7.72-18.56c5.17-5.18,11.37-7.77,18.61-7.77s13.43,2.58,18.61,7.75c5.17,5.17,7.75,11.36,7.75,18.55ZM805.07,83.12c-1.12-3.47-3.14-6.27-6.02-8.39-2.83-2.17-6.06-3.26-9.69-3.26s-6.86,1.09-9.69,3.26c-2.93,2.22-4.94,5.02-6.02,8.39h31.43ZM763.12,71.59c-3.54,0-6.63,1.18-9.26,3.52-2.6,2.32-3.9,5.26-3.9,8.84v29.49h-9.87v-50.85h9.87v4.44c3.6-3.55,7.98-5.33,13.16-5.33v9.89ZM734.01,88.03c0,7.21-2.58,13.39-7.77,18.58-5.18,5.08-11.39,7.62-18.61,7.62s-13.44-2.53-18.63-7.62c-5.15-5.15-7.72-11.34-7.72-18.58s2.57-13.41,7.72-18.56c5.18-5.18,11.39-7.77,18.63-7.77s13.43,2.58,18.61,7.77c5.18,5.16,7.77,11.37,7.77,18.56ZM724.13,87.96c0-4.48-1.63-8.34-4.87-11.6-3.26-3.26-7.14-4.88-11.63-4.88s-8.39,1.63-11.65,4.88c-3.21,3.23-4.82,7.09-4.82,11.6s1.61,8.42,4.82,11.65c3.23,3.22,7.11,4.84,11.65,4.84s8.41-1.62,11.63-4.84c3.24-3.26,4.87-7.14,4.87-11.65ZM665.33,113.43v-29.57c0-3.35-1.22-6.25-3.67-8.72-2.4-2.45-5.3-3.67-8.67-3.67s-6.24,1.23-8.67,3.68c-2.45,2.45-3.67,5.35-3.67,8.7v29.57h-9.87V46.1h9.87v21.19c4.02-3.73,8.69-5.59,14.02-5.59,5.89,0,10.81,2.29,14.79,6.84,3.83,4.31,5.74,9.45,5.74,15.4v29.49h-9.87ZM620.55,99.22c0,4.18-1.51,7.73-4.54,10.66-3.04,2.9-6.63,4.34-10.75,4.34-3.7,0-6.91-1.12-9.64-3.37-2.76-2.32-4.54-5.31-5.35-8.97l9.54-2.57c.64,3.44,2.45,5.17,5.45,5.17,1.42,0,2.68-.51,3.82-1.55,1.12-1.05,1.68-2.3,1.68-3.72,0-2.34-1.78-4.28-5.35-5.83-5.73-2.55-9.04-4.16-9.94-4.87-3.56-2.65-5.35-6.48-5.35-11.53,0-4.11,1.5-7.7,4.49-10.75,3.01-3.03,6.62-4.54,10.8-4.54,3.7,0,6.91,1.17,9.64,3.52,2.63,2.26,4.38,5.22,5.25,8.92l-9.64,2.52c-.74-3.39-2.49-5.07-5.25-5.07-1.48,0-2.77.53-3.85,1.6-1.07,1.05-1.6,2.32-1.6,3.8,0,2.32,1.78,4.26,5.35,5.84,2.83,1.22,5.05,2.24,6.68,3.06,1.61.82,2.68,1.42,3.21,1.81,3.55,2.7,5.35,6.53,5.35,11.52ZM588.15,55.94c-3.67,0-6.76,1.17-9.31,3.51-2.57,2.32-3.85,5.27-3.85,8.84v2.5h8.24v9.78h-8.24v32.88h-9.87v-32.88h-4.15v-9.78h4.15v-2.5c0-6.07,2.3-11.29,6.93-15.63,4.59-4.3,9.97-6.48,16.11-6.55v9.84ZM563.15,55.94c-3.67,0-6.76,1.17-9.31,3.51-2.57,2.32-3.85,5.27-3.85,8.84v2.5h8.24v9.78h-8.24v32.88h-9.87v-32.88h-4.15v-9.78h4.15v-2.5c0-6.07,2.3-11.29,6.93-15.63,4.59-4.3,9.97-6.48,16.11-6.55v9.84ZM533.99,79.82c0,9.42-3.41,17.53-10.22,24.34-6.81,6.71-14.93,10.07-24.34,10.07s-17.52-3.36-24.34-10.07c-6.81-6.81-10.22-14.92-10.22-24.34s3.41-17.48,10.22-24.29c6.81-6.81,14.92-10.22,24.34-10.22s17.52,3.41,24.34,10.22c6.81,6.81,10.22,14.91,10.22,24.29ZM524.11,79.77c0-6.75-2.42-12.56-7.27-17.41-4.85-4.85-10.66-7.27-17.41-7.27s-12.55,2.42-17.41,7.27c-4.85,4.85-7.27,10.66-7.27,17.41s2.42,12.55,7.27,17.41c4.86,4.85,10.66,7.27,17.41,7.27s12.55-2.42,17.41-7.27c4.85-4.86,7.27-10.66,7.27-17.41ZM431.6,71.59c-3.54,0-6.63,1.18-9.26,3.52-2.6,2.32-3.9,5.26-3.9,8.84v29.49h-9.87v-50.85h9.87v4.44c3.6-3.55,7.98-5.33,13.16-5.33v9.89ZM388.52,113.43v-6.02c-4.85,4.54-10.63,6.81-17.33,6.81-7.11,0-13.13-2.57-18.08-7.72-4.95-5.15-7.44-11.31-7.44-18.48s2.49-13.38,7.44-18.51c4.95-5.22,10.98-7.82,18.08-7.82,6.7,0,12.47,2.35,17.33,7.06v-6.17h9.87v50.85h-9.87ZM388.52,87.96c0-4.48-1.63-8.34-4.87-11.6-3.26-3.26-7.14-4.88-11.63-4.88s-8.39,1.63-11.65,4.88c-3.21,3.23-4.82,7.09-4.82,11.6s1.61,8.42,4.82,11.65c3.23,3.22,7.11,4.84,11.65,4.84s8.41-1.62,11.63-4.84c3.24-3.26,4.87-7.14,4.87-11.65ZM343.69,88.03c0,7.14-2.49,13.29-7.46,18.48-4.95,5.15-10.96,7.72-18.02,7.72-6.66,0-12.42-2.27-17.28-6.81v6.02h-9.87V46.1h9.87v22.59c4.85-4.66,10.61-6.99,17.28-6.99,7.03,0,13.03,2.6,18.02,7.82,4.97,5.26,7.46,11.45,7.46,18.51ZM333.81,87.96c0-4.48-1.61-8.34-4.85-11.6-3.24-3.26-7.09-4.88-11.55-4.88s-8.38,1.63-11.62,4.88c-3.24,3.26-4.85,7.13-4.85,11.6s1.63,8.39,4.87,11.65c3.21,3.22,7.08,4.84,11.6,4.84s8.34-1.62,11.55-4.84c3.24-3.26,4.85-7.14,4.85-11.65ZM274.29,113.43l-18.61-18.36-3.23,3.23v15.14h-9.87V46.1h9.87v38.28l21.84-21.79h13.89l-25.51,25.49,25.51,25.36h-13.89ZM230.37,113.43l-4.53-12.34h-31.48l-4.54,12.34h-10.32l24.4-67.34h12.49l24.54,67.34h-10.57ZM210.12,57.86l-12.24,33.45h24.44l-12.19-33.45Z"/>
      <path class="cls-4" d="M815.71,87.99c0,1.63-.13,3.26-.43,4.91h-41.65c1.12,3.44,3.13,6.24,6.02,8.36,2.9,2.12,6.12,3.19,9.69,3.19,5.84,0,10.57-2.72,14.17-8.15l8.29,5.45c-5.56,8.31-13.05,12.47-22.46,12.47-7.24,0-13.44-2.53-18.61-7.62-5.15-5.15-7.72-11.34-7.72-18.58s2.57-13.41,7.72-18.56c5.17-5.18,11.37-7.77,18.61-7.77s13.43,2.58,18.61,7.75c5.17,5.17,7.75,11.36,7.75,18.55ZM805.07,83.12c-1.12-3.47-3.14-6.27-6.02-8.39-2.83-2.17-6.06-3.26-9.69-3.26s-6.86,1.09-9.69,3.26c-2.93,2.22-4.94,5.02-6.02,8.39h31.43ZM763.12,71.59c-3.54,0-6.63,1.18-9.26,3.52-2.6,2.32-3.9,5.26-3.9,8.84v29.49h-9.87v-50.85h9.87v4.44c3.6-3.55,7.98-5.33,13.16-5.33v9.89ZM734.01,88.03c0,7.21-2.58,13.39-7.77,18.58-5.18,5.08-11.39,7.62-18.61,7.62s-13.44-2.53-18.63-7.62c-5.15-5.15-7.72-11.34-7.72-18.58s2.57-13.41,7.72-18.56c5.18-5.18,11.39-7.77,18.63-7.77s13.43,2.58,18.61,7.77c5.18,5.16,7.77,11.37,7.77,18.56ZM724.13,87.96c0-4.48-1.63-8.34-4.87-11.6-3.26-3.26-7.14-4.88-11.63-4.88s-8.39,1.63-11.65,4.88c-3.21,3.23-4.82,7.09-4.82,11.6s1.61,8.42,4.82,11.65c3.23,3.22,7.11,4.84,11.65,4.84s8.41-1.62,11.63-4.84c3.24-3.26,4.87-7.14,4.87-11.65ZM665.33,113.43v-29.57c0-3.35-1.22-6.25-3.67-8.72-2.4-2.45-5.3-3.67-8.67-3.67s-6.24,1.23-8.67,3.68c-2.45,2.45-3.67,5.35-3.67,8.7v29.57h-9.87V46.1h9.87v21.19c4.02-3.73,8.69-5.59,14.02-5.59,5.89,0,10.81,2.29,14.79,6.84,3.83,4.31,5.74,9.45,5.74,15.4v29.49h-9.87ZM620.55,99.22c0,4.18-1.51,7.73-4.54,10.66-3.04,2.9-6.63,4.34-10.75,4.34-3.7,0-6.91-1.12-9.64-3.37-2.76-2.32-4.54-5.31-5.35-8.97l9.54-2.57c.64,3.44,2.45,5.17,5.45,5.17,1.42,0,2.68-.51,3.82-1.55,1.12-1.05,1.68-2.3,1.68-3.72,0-2.34-1.78-4.28-5.35-5.83-5.73-2.55-9.04-4.16-9.94-4.87-3.56-2.65-5.35-6.48-5.35-11.53,0-4.11,1.5-7.7,4.49-10.75,3.01-3.03,6.62-4.54,10.8-4.54,3.7,0,6.91,1.17,9.64,3.52,2.63,2.26,4.38,5.22,5.25,8.92l-9.64,2.52c-.74-3.39-2.49-5.07-5.25-5.07-1.48,0-2.77.53-3.85,1.6-1.07,1.05-1.6,2.32-1.6,3.8,0,2.32,1.78,4.26,5.35,5.84,2.83,1.22,5.05,2.24,6.68,3.06,1.61.82,2.68,1.42,3.21,1.81,3.55,2.7,5.35,6.53,5.35,11.52ZM588.15,55.94c-3.67,0-6.76,1.17-9.31,3.51-2.57,2.32-3.85,5.27-3.85,8.84v2.5h8.24v9.78h-8.24v32.88h-9.87v-32.88h-4.15v-9.78h4.15v-2.5c0-6.07,2.3-11.29,6.93-15.63,4.59-4.3,9.97-6.48,16.11-6.55v9.84ZM563.15,55.94c-3.67,0-6.76,1.17-9.31,3.51-2.57,2.32-3.85,5.27-3.85,8.84v2.5h8.24v9.78h-8.24v32.88h-9.87v-32.88h-4.15v-9.78h4.15v-2.5c0-6.07,2.3-11.29,6.93-15.63,4.59-4.3,9.97-6.48,16.11-6.55v9.84ZM533.99,79.82c0,9.42-3.41,17.53-10.22,24.34-6.81,6.71-14.93,10.07-24.34,10.07s-17.52-3.36-24.34-10.07c-6.81-6.81-10.22-14.92-10.22-24.34s3.41-17.48,10.22-24.29c6.81-6.81,14.92-10.22,24.34-10.22s17.52,3.41,24.34,10.22c6.81,6.81,10.22,14.91,10.22,24.29ZM524.11,79.77c0-6.75-2.42-12.56-7.27-17.41-4.85-4.85-10.66-7.27-17.41-7.27s-12.55,2.42-17.41,7.27c-4.85,4.85-7.27,10.66-7.27,17.41s2.42,12.55,7.27,17.41c4.86,4.85,10.66,7.27,17.41,7.27s12.55-2.42,17.41-7.27c4.85-4.86,7.27-10.66,7.27-17.41ZM431.6,71.59c-3.54,0-6.63,1.18-9.26,3.52-2.6,2.32-3.9,5.26-3.9,8.84v29.49h-9.87v-50.85h9.87v4.44c3.6-3.55,7.98-5.33,13.16-5.33v9.89ZM388.52,113.43v-6.02c-4.85,4.54-10.63,6.81-17.33,6.81-7.11,0-13.13-2.57-18.08-7.72-4.95-5.15-7.44-11.31-7.44-18.48s2.49-13.38,7.44-18.51c4.95-5.22,10.98-7.82,18.08-7.82,6.7,0,12.47,2.35,17.33,7.06v-6.17h9.87v50.85h-9.87ZM388.52,87.96c0-4.48-1.63-8.34-4.87-11.6-3.26-3.26-7.14-4.88-11.63-4.88s-8.39,1.63-11.65,4.88c-3.21,3.23-4.82,7.09-4.82,11.6s1.61,8.42,4.82,11.65c3.23,3.22,7.11,4.84,11.65,4.84s8.41-1.62,11.63-4.84c3.24-3.26,4.87-7.14,4.87-11.65ZM343.69,88.03c0,7.14-2.49,13.29-7.46,18.48-4.95,5.15-10.96,7.72-18.02,7.72-6.66,0-12.42-2.27-17.28-6.81v6.02h-9.87V46.1h9.87v22.59c4.85-4.66,10.61-6.99,17.28-6.99,7.03,0,13.03,2.6,18.02,7.82,4.97,5.26,7.46,11.45,7.46,18.51ZM333.81,87.96c0-4.48-1.61-8.34-4.85-11.6-3.24-3.26-7.09-4.88-11.55-4.88s-8.38,1.63-11.62,4.88c-3.24,3.26-4.85,7.13-4.85,11.6s1.63,8.39,4.87,11.65c3.21,3.22,7.08,4.84,11.6,4.84s8.34-1.62,11.55-4.84c3.24-3.26,4.85-7.14,4.85-11.65ZM274.29,113.43l-18.61-18.36-3.23,3.23v15.14h-9.87V46.1h9.87v38.28l21.84-21.79h13.89l-25.51,25.49,25.51,25.36h-13.89ZM230.37,113.43l-4.53-12.34h-31.48l-4.54,12.34h-10.32l24.4-67.34h12.49l24.54,67.34h-10.57ZM210.12,57.86l-12.24,33.45h24.44l-12.19-33.45Z"/>
      <path class="cls-6" d="M44.53,141.76c.86-1.56,1.58-2.92,2.34-4.25,1.51-2.64,3.04-5.27,4.55-7.91,2.37-4.13,4.73-8.27,7.08-12.41,1.86-3.27,3.69-6.56,5.55-9.83,2.27-4,4.58-7.99,6.85-11.99,2.19-3.87,4.35-7.74,6.54-11.62,1.73-3.06,3.47-6.13,5.2-9.19.26-.46.55-.62.92-.13,1.88,2.41,4.22,4.37,6.34,6.55.41.43.37.72.15,1.15-1.68,3.32-1.7,6.64.06,9.92.36.67.21,1-.26,1.49-2.86,3.05-5.73,6.09-8.61,9.12-2.2,2.31-4.35,4.68-6.53,7.01-3.69,3.95-7.35,7.93-11.08,11.84-2.17,2.28-4.33,4.58-6.42,6.93-2.11,2.38-4.55,4.45-6.44,7.03.2.15.35,0,.49-.15,1.98-1.96,3.97-3.92,6.03-5.81,4.28-3.94,8.45-8,12.74-11.94,2.35-2.16,4.68-4.34,7.02-6.52,3.68-3.43,7.36-6.87,11.06-10.28,1.59-1.46,3.03-3.08,4.77-4.4.56-.43.96-.56,1.49-.19,1.48,1.02,3.24,1.26,4.92,1.38,1.21.08,2.55-.21,3.71-.83,1.24-.66,2.2-.63,3.24.56,1.65,1.89,3.51,3.6,5.31,5.36.55.54.75.8-.13,1.29-7.13,3.97-14.23,8.01-21.34,12.02-5.4,3.05-10.81,6.08-16.22,9.12-6.35,3.57-12.73,7.08-19.03,10.73-3.22,1.86-6.54,3.57-9.63,5.66-.12.08-.26.11-.68.27"/>
      <path class="cls-2" d="M134.77,39.34c-3,1.74-5.83,3.4-8.68,5.02-4.76,2.72-9.53,5.43-14.3,8.12-3.94,2.23-7.89,4.42-11.82,6.65-4.66,2.65-9.31,5.32-13.96,7.98-.49.28-.97.58-1.49.77-3.51,1.28-4.41,4.69-6.06,7.45-2.69,4.49-5.23,9.08-7.83,13.63-2.11,3.68-4.2,7.37-6.31,11.06-2.62,4.59-5.24,9.17-7.85,13.77-1.46,2.57-2.92,5.15-4.32,7.76-.38.7-.66.7-1.08.12-2.76-3.81-5.05-7.88-6.83-12.24-1.55-3.79-2.65-7.71-3.41-11.71-.72-3.86-.81-7.77-.83-11.7-.04-7.95,1.72-15.49,4.82-22.75,2.27-5.32,5.31-10.16,9.08-14.55,4.66-5.44,10.05-9.98,16.31-13.51,4.67-2.63,9.61-4.54,14.77-5.83,2.68-.67,5.43-1.1,8.21-1.38,3.62-.36,7.25-.34,10.84-.13,4.44.26,8.81,1.19,13.09,2.53,6.17,1.94,11.84,4.81,17.12,8.51.14.1.26.2.54.42"/>
      <path class="cls-2" d="M99.52,146.15c-6.62.36-12.86-.8-18.92-2.75-5.78-1.85-11.13-4.65-16.07-8.22-.59-.43-.54-.57,0-.87,4.1-2.33,8.22-4.64,12.31-6.99,4.34-2.49,8.65-5.02,13-7.5,3.44-1.96,6.92-3.87,10.36-5.82,4.56-2.59,8.97-5.47,13.7-7.71,3.15-1.49,4.34-4.23,5.87-6.83,2.69-4.55,5.26-9.16,7.86-13.75,2.18-3.82,4.34-7.66,6.51-11.49,2.61-4.59,5.23-9.17,7.84-13.76,1.48-2.61,2.94-5.23,4.41-7.85.34-.61.45-1.22,1.23-.16,4.67,6.36,7.75,13.42,9.55,21.05.67,2.87,1.07,5.78,1.32,8.72.24,2.76.31,5.51.14,8.24-.42,6.89-1.92,13.56-4.67,19.93-2.27,5.26-5.2,10.14-8.85,14.54-4.34,5.22-9.48,9.56-15.3,13.06-5.7,3.43-11.85,5.76-18.33,7.12-3.98.84-8.03,1.37-11.94,1.03"/>
      <path class="cls-8" d="M148.4,38.16c-.74.1-.92.47-1.17.71-3.45,3.27-6.86,6.6-10.36,9.82-2.38,2.19-4.73,4.41-7.11,6.6-3.58,3.3-7.13,6.64-10.69,9.95-2.55,2.37-5.05,4.79-7.64,7.11-1.95,1.75-3.66,3.74-5.74,5.34-.4.31-.65.41-1.17.16-3.41-1.66-6.87-1.91-10.28-.01-.53.29-.71.09-1.01-.21-2.13-2.13-4.26-4.26-6.39-6.39-.36-.36-.59-.51.1-.9,5.66-3.16,11.27-6.41,16.92-9.6,6.9-3.9,13.81-7.77,20.7-11.67,5.47-3.1,10.92-6.23,16.38-9.35,4.17-2.38,8.43-4.6,12.47-7.22.05-.03.15.03.32.07-.29,1.14-1.03,2.06-1.58,3.04-3.04,5.45-6.17,10.86-9.25,16.29-2.21,3.9-4.37,7.83-6.58,11.72-2.57,4.52-5.21,9.01-7.78,13.53-2.29,4.04-4.5,8.12-6.79,12.16-1.94,3.41-3.96,6.78-5.88,10.2-.32.56-.45.29-.68.07-2.02-2.01-4.02-4.03-6.04-6.04-.92-.91-.49-1.97-.11-2.83,1.36-3.01.91-5.88-.53-8.67-.34-.67-.25-1.01.24-1.52,3.7-3.83,7.22-7.83,10.91-11.67,2.38-2.48,4.7-5.02,7.05-7.53,3.66-3.92,7.31-7.85,11-11.75,2.28-2.4,4.52-4.85,6.77-7.28,1.24-1.34,2.51-2.65,3.93-4.15"/>
      <path class="cls-7" d="M99.06,92.94c-2.96.24-5.89-2.53-5.75-5.81.14-3.31,1.95-6.06,6.03-6.1,2.99-.02,6.03,2.7,6.11,5.94.08,3.27-3.24,6.32-6.39,5.98"/>
    </g>
  </g>
</svg>